<?xml version="1.0" encoding="UTF-8"?>
<svg id="_レイヤー_2" data-name="レイヤー 2" xmlns="http://www.w3.org/2000/svg" viewBox="0 0 478.86 88.58">
  <defs>
    <style>
      .cls-1 {
        fill: #3e43f0;
      }
    </style>
  </defs>
  <g id="_レイヤー_2-2" data-name="レイヤー 2">
    <path class="cls-1" d="M193.54,51.52c.17,8.97-4.14,16.39-10.98,19.73-7.7,3.76-16.49,3.46-23.47-2.51l-.06,19.68-9.88.16-.05-58.7h9.4s.34,4.31.34,4.31c6.36-5.65,15.03-6.25,23.08-2.7,7.04,3.11,11.45,10.8,11.62,20.03ZM183.38,51.5c.08-7.96-5.4-13.92-12.55-13.52-7.37.41-12.02,6.48-11.78,14.01.22,7.28,5.44,13.03,12.5,12.94s11.76-5.8,11.84-13.43Z"/>
    <path class="cls-1" d="M144.65,61.36c-3.25,14.33-29.01,16.28-43.46,5.76l3.56-8.44c10.91,8.65,29.31,8.34,30.16-.09.21-2.1-1.58-5.94-3.82-6.59l-12.62-3.67c-4.36-1.27-9.26-2.94-12.4-6.19-3.8-3.93-4.27-9.3-2.76-14.62,3.71-13.13,26-15.32,39.73-6.93l-3.23,8.57c-10.78-7.08-26.33-6.31-26.88,2.72-.16,2.58,2.13,5.67,4.92,6.42l12.87,3.47c3.84,1.03,8.34,2.78,11.1,5.61,3.68,3.78,3.99,8.85,2.82,14Z"/>
    <polygon class="cls-1" points="311.39 72.98 299.42 73.22 284.99 54.47 278.39 61.18 278.34 73.07 268.36 73.07 268.34 13.71 278.34 13.69 278.36 48.63 297.59 30.04 309.78 30.03 292.4 47.97 311.39 72.98"/>
    <path class="cls-1" d="M356.01,57.46l6.81,6.53c-4.75,7-12.85,9.58-21.29,9.83-16.7.48-29.36-11.5-29.91-28.12-.55-16.6,11.46-29.72,28.24-30.05,8.9-.17,17.23,2.5,23.13,9.81l-6.95,6.44c-5.85-7.03-13.97-8.69-21.94-5.82-7.29,2.63-11.98,10.18-11.93,18.74s4.38,15.54,11.39,18.33c7.86,3.13,16.57,1.68,22.45-5.68Z"/>
    <path class="cls-1" d="M205.77,72.86c-6.78-1.54-10.63-7.06-10.37-13.29s5.29-11.21,12.02-11.45l16.29-.58c.35-4.8-2.71-8.95-7.51-9.57-5.7-.73-10.46.67-15.65,3.63l-3.81-7.32c7.41-4.67,14.9-5.61,23.23-4.37,7.4,1.1,13.33,7.06,13.37,14.89l.12,28.22-8.9.03-.3-4.34c-4.89,4.82-11.47,5.72-18.48,4.13ZM223.69,54.18l-12.65.19c-3.32.05-5.98,2.91-5.84,5.95s2.72,5.42,6.14,5.78,7.05-.46,9.35-2.31c2.77-2.23,3.49-5.41,2.99-9.6Z"/>
    <path class="cls-1" d="M377.49,73.15c-7.21-1.17-11.73-6.2-11.66-12.74.07-6.32,4.69-12.01,11.74-12.26l16.31-.56c.41-4.92-2.7-9.02-7.58-9.66-5.47-.71-10.65.67-15.4,3.96l-3.8-7.39c7.56-5.13,17.34-6.58,26.31-3.7,6.54,2.1,10.31,8.02,10.34,14.88l.09,27.45-9.04-.1-.38-4.29c-4.41,4.66-10.37,5.48-16.92,4.41ZM393.66,54.24h-11.54c-3.81,0-6.74,2.56-6.52,6.2.17,2.9,3.14,5.47,6.78,5.62,3.3.14,6.97-.81,9.07-2.66,2.3-2.01,3.1-5.83,2.21-9.16Z"/>
    <path class="cls-1" d="M438.42,71.62c-9.73,3.63-20.17,2.24-29.38-2.57l3.72-8.27c9.95,6.25,23.91,5.61,23.22-.3-.15-1.27-2.24-3.31-3.53-3.58l-11.94-2.5c-5.89-1.23-9.79-5.66-9.99-10.99-.23-5.88,3.18-10.92,9.2-12.68,8.3-2.43,17.19-1.59,25.11,2.25l-3.48,8.17c-8.91-5.2-21.02-4.21-20.69,1.39.07,1.28,2.08,3.46,3.34,3.72l11.99,2.45c5.69,1.17,9.77,4.82,10.21,10.06.44,5.28-1.88,10.65-7.78,12.85Z"/>
    <path class="cls-1" d="M475.91,63.84l2.95,7.19c-5.74,3.32-12.3,3.7-17.93.72-3.99-2.11-6.18-7.17-6.2-11.65l-.08-22.05-6.56-.05v-7.92s6.62-.2,6.62-.2l-.06-9.65,10.17-.05.05,9.75,10.73.11.09,7.98-10.9.21.2,22.32c.01,1.54,2.3,4.06,3.63,4.3,1.67.3,3.91-.13,7.28-1.01Z"/>
    <path class="cls-1" d="M263.47,38.53c-3.79.25-7.3.52-10.23,2.59-2.1,1.49-4.07,5.81-4.09,8.89l-.1,23.03h-10.02s-.09-43.1-.09-43.1l9.38-.08.22,5.27c4.21-4.02,9.12-6.1,14.96-5.63l-.03,9.04Z"/>
    <g>
      <path class="cls-1" d="M72.88,81.22c-7.21,5.28-20.75,3.3-27.49-.75,8.44-1.01,17.45.78,24.26-3.03,3.77-2.78,1.78-6.51-2.48-7.25-19.07-3.44-44.46,23.93-63.74,10.95-5.79-4.6-3.93-13.95,3.13-16.13,7.1-2.71,16.16-1.02,22.3,2.33-5.36-.32-10.47-.87-15.71.37-5.43,1-11.35,5.81-5.35,9.76,21.32,8.96,45.3-23.17,66.27-10.28,4.36,3.53,3.68,11.05-1.19,14.03Z"/>
      <path class="cls-1" d="M26.15,36.01c-3.46,5.93-5.08,12.77-5.15,19.53.02.51.3.76.81.72,4.73-.57,6.93-5.62,9.01-9.95.17-.36.44-.78.84-.47,5.12,5.89-3.7,16.45-10.42,15.73-11.49-1.63-3.44-23.16.61-29.17,5.82-8.82,17.21-11.77,26.45-6.68,9.55,5.59,12.08,18.33,12.09,28.64.02,1.46-.21,2.82-.95,4.16-.1.14-.2.22-.32.24-.4.06-.87-.74-1.22-1.23-.76-1.16-1.21-2.36-1.6-3.7-2.3-8.48-4.33-20.14-11.66-23.76-6.5-3.29-14.81-.5-18.41,5.8l-.09.16Z"/>
      <circle class="cls-1" cx="38.86" cy="9.52" r="9.52"/>
    </g>
  </g>
</svg>