<?xml version="1.0" encoding="UTF-8"?>
<svg id="_レイヤー_2" data-name="レイヤー 2" xmlns="http://www.w3.org/2000/svg" viewBox="0 0 76.97 84.65">
  <defs>
    <style>
      .cls-1 {
        fill: #3e43f0;
      }
    </style>
  </defs>
  <g id="_レイヤー_2-2" data-name="レイヤー 2">
    <g>
      <path class="cls-1" d="M72.88,81.22c-7.21,5.28-20.75,3.3-27.49-.75,8.44-1.01,17.45.78,24.26-3.03,3.77-2.78,1.78-6.51-2.48-7.25-19.07-3.44-44.46,23.93-63.74,10.95-5.79-4.6-3.93-13.95,3.13-16.13,7.1-2.71,16.16-1.02,22.3,2.33-5.36-.32-10.47-.87-15.71.37-5.43,1-11.35,5.81-5.35,9.76,21.32,8.96,45.3-23.17,66.27-10.28,4.36,3.53,3.68,11.05-1.19,14.03Z"/>
      <path class="cls-1" d="M26.15,36.01c-3.46,5.93-5.08,12.77-5.15,19.53.02.51.3.76.81.72,4.73-.57,6.93-5.62,9.01-9.95.17-.36.44-.78.84-.47,5.12,5.89-3.7,16.45-10.42,15.73-11.49-1.63-3.44-23.16.61-29.17,5.82-8.82,17.21-11.77,26.45-6.68,9.55,5.59,12.08,18.33,12.09,28.64.02,1.46-.21,2.82-.95,4.16-.1.14-.2.22-.32.24-.4.06-.87-.74-1.22-1.23-.76-1.16-1.21-2.36-1.6-3.7-2.3-8.48-4.33-20.14-11.66-23.76-6.5-3.29-14.81-.5-18.41,5.8l-.09.16Z"/>
      <circle class="cls-1" cx="38.86" cy="9.52" r="9.52"/>
    </g>
  </g>
</svg>