<?xml version="1.0" encoding="UTF-8"?>
<svg id="_リーダーボード" data-name="リーダーボード" xmlns="http://www.w3.org/2000/svg" viewBox="0 0 728 90">
  <defs>
    <style>
      .cls-1 {
        fill: #0d1e36;
      }

      .cls-2 {
        fill: #fff;
      }

      .cls-3 {
        fill: #2d92cb;
      }
    </style>
  </defs>
  <rect class="cls-2" width="728" height="90"/>
  <g>
    <g>
      <path class="cls-1" d="M319.92,71.46c-3.78,3.02-9.33,2.64-14.15,1.45-.54-.18-3.13-.7-2.65-1.34,1.14-.62,3.23-.53,4.63-.7,3.24-.23,6.44-.53,8.52-1.85,2.92-1.83.72-4.13-2.02-4.45-4-.58-8.09.91-11.75,2.43-7.05,3.01-14.09,6.94-21.97,6.82-2.49-.06-5.09-.64-7.01-2.21-2.67-2.05-3.37-6.14-1.11-8.72,2.02-2.49,6.21-3.46,9.62-3.31,2.32-.05,9.39,1.7,4.67,2.11-3.16.24-6.88.29-9.34,2.16-2.28,1.71-1.67,4.23.78,5.17,1.37.58,3.11.7,4.64.62,11.24-.88,20.12-10.25,31.77-9.56,6.07.13,10.63,6.64,5.45,11.29l-.1.08Z"/>
      <path class="cls-1" d="M296.58,36.23c-7.73.08-11.01,9.07-11.38,16.55-.03.57-.01,1.42.4,1.78.42.36,1.11.06,1.56-.19,2.33-1.36,3.02-3.51,4.15-5.73.99-1.68,1.9.26,2,1.29.23,2.63-1.12,5.26-3.06,6.94-2.2,2.08-5.82,2.43-7.58.45-1.4-1.33-1.64-3.56-1.45-5.45.39-7.02,3.22-15.06,9.38-18.19,14.7-6.41,21.44,8.87,20.85,20.82-.07.79-.2,2.02-1.08,2.08-1.91-.73-2.33-4.84-2.99-6.86-1.32-5.83-3.7-13.76-10.68-13.5h-.12Z"/>
      <ellipse class="cls-3" cx="296.73" cy="22.71" rx="6.6" ry="6.59"/>
    </g>
    <g>
      <path class="cls-3" d="M554.41,25.49l-11.34.25c-.18-1.12-.15-2.02.21-3.11l11.13,2.85Z"/>
      <path class="cls-3" d="M542.41,19.51l-2.9-2.88,11.13-9.52c.92-.78,1.68-1.65,2.93-2.06l-4.18,5.39-6.98,9.08Z"/>
      <path class="cls-3" d="M535.86,15.7c-.82.76-1.87.87-3.01,1.02.16-1.45-.28-2.65-.28-3.98l-.02-7.47c1.09.22.72,1.26.93,1.99l2.39,8.45Z"/>
      <ellipse class="cls-3" cx="537.24" cy="22.3" rx="2.44" ry="2.44"/>
    </g>
    <path d="M402.66,49.84c2.26,10.65,13.23,16.16,23.44,12.58,2.74-1.09,5.06-2.65,6.82-5.11l5.87,5.71c-2.21,2.58-4.66,4.54-7.59,5.98-4.71,2.1-9.76,2.71-14.84,2.25-14.13-1.27-24.1-13.36-23.15-27.39.64-9.48,5.77-17.99,14.6-22.01,10.21-4.64,23.6-3.17,31.13,5.68l-5.96,5.59c-4.12-4.86-10.13-6.97-16.25-5.92-10.81,1.9-16.27,12.24-14.07,22.64Z"/>
    <path d="M442.91,59.88c-.12-7.89,6.62-11.4,13.73-11.47l11.47-.1-.6-3.38c-.8-2.53-2.9-4.23-5.5-4.81-3.08-.57-6.17-.28-9.16.64-2,.74-3.73,1.7-5.42,3.24l-3.55-6.33c6.33-5.07,16.87-6.47,24.23-3.58,6.49,2.55,8.65,7.88,8.66,14.66l.03,21.93-8.16-.02-.12-3.84c-4.35,5.34-14.12,5.5-19.96,2.42-3.61-1.9-5.59-5.21-5.65-9.36ZM467.99,58.23l.11-4-10.08.09c-1.95.02-3.89.61-5.27,1.96-1.28,1.26-1.45,3.02-.89,4.82.38,1.23,1.54,2.43,3.11,3.01,6.23,2.28,12.91-1.65,13.02-5.87Z"/>
    <path d="M509.97,68.47c-6.96,4.57-20.58,3.48-27.51-1.81l3.35-6.54c5.85,4.97,20.87,5.98,20.43-.23-.35-4.88-9.33-3.66-16.54-6.72-2.33-.99-4.36-2.48-5.37-4.87-1.34-3.18-1.06-7.02.96-9.87,4.04-5.73,12.87-6.5,19.63-5.3,2.96.52,5.66,1.46,8.21,3.19l-3.23,6.47c-5.86-4.13-18.53-4.44-17.86,1.5.12,1.1.97,2.26,2.27,2.56l7.03,1.64c2.67.62,5.26,1.09,7.68,2.24,3.5,1.66,5.54,4.67,5.63,8.54s-1.46,7.12-4.67,9.22Z"/>
    <path d="M543.3,68.74c-3.81,3.1-10.77,3.4-15.12,1.17-3.53-1.8-5.6-5.39-5.62-9.42l-.08-19.93-5.9-.02v-6.86s5.91-.04,5.91-.04l.04-7.99,8.26-3.07.05,11.03,9.9.05v6.85s-9.9.06-9.9.06l.09,18.39c.01,2.27,1.09,4.14,3.22,4.78,2.29.64,4.6.19,6.64-1.42l2.51,6.43Z"/>
    <path d="M334.22,56.69l-.06,13.99h-8.39s.01-37.44.01-37.44h8.02s.11,5.27.11,5.27c3.34-4.62,8.69-6.64,14.26-5.6l-.11,8.08c-3.41-.74-6.63-.29-9.36,1.6-4.4,3.35-4.58,8.55-4.48,14.09Z"/>
    <g>
      <polygon points="362.33 70.55 361.92 70.69 353.68 70.65 353.69 18.41 362.34 18.37 362.38 49.58 378.74 33.25 389.29 33.34 373.96 49.22 390.34 70.64 379.87 70.64 367.91 54.96 362.36 60.84 362.33 70.55"/>
      <path d="M361.92,70.69l.41-.14c0,.17-.32.14-.41.14Z"/>
    </g>
    <path d="M240.81,66.56l-.05,18.38h-8.49s0-51.66,0-51.66l8.16.02.07,4.23c1.62-1.65,3.42-2.96,5.68-3.75,9.83-3.44,21.2.96,24.33,11.26,2.77,9.07.07,20.11-8.86,24.39-6.46,3.1-15.62,2.6-20.85-2.87ZM252.08,63.9c4.54,0,8.21-2.46,9.76-6.57,1.21-3.2,1.23-6.66.21-9.94-1.4-4.51-5.39-7.29-10.11-7.31-4.99-.02-9.25,2.98-10.61,7.83-.73,2.58-.71,5.3-.03,7.87,1.32,4.95,5.5,8.11,10.77,8.11Z"/>
    <path d="M223.97,63.73c-6.81,10.78-28.88,9.55-38.17.2,1.81-2.46,3.4-4.9,4.92-7.7,4.45,6.88,14.04,8.64,21.32,6.65,2.27-.62,4.02-2.1,4.76-4.24,1.56-4.52-2.91-7.18-7.36-8.34l-8.71-2.29c-7.35-1.93-13.69-5.01-13.96-13.13s5.25-13.21,12.83-14.87c4.79-1.05,9.64-.99,14.4.18,3.91.97,7.32,2.76,10.28,5.51-1.65,2.36-3.28,4.36-5.06,6.48-3.23-3.46-7.42-5.23-12.07-5.47-5.4-.37-12.17,2.13-11.61,7.31.9,8.38,22.98,5.44,28.75,15.53,2.47,4.32,2.33,9.93-.34,14.17Z"/>
    <path class="cls-3" d="M182.35,60.69l-1.34-4.65c-.39-1.37-1.35-2.33-2.72-2.71l-4.7-1.29c3.15-.84,6.72-1.2,7.53-4.27l1.17-4.5,1.24,4.33c.92,3.21,4.36,3.52,7.44,4.42-2.79.85-5.64.88-6.94,3.27-.82,1.68-.96,3.38-1.67,5.38Z"/>
  </g>
</svg>